name analog
datacolumns 19
datarows 23
range 0.0 0.011
endheader
time	ground_force_vx	ground_force_vy	ground_force_vz	ground_force_px	ground_force_py	ground_force_pz	l_ground_force_vx	l_ground_force_vy	l_ground_force_vz	l_ground_force_px	l_ground_force_py	l_ground_force_pz	ground_torque_x	ground_torque_y	ground_torque_z	l_ground_torque_x	l_ground_torque_y	l_ground_torque_z
0.0	-0.0	-0.0	-0.0	-4.903765678405762	13.53249740600586	-162.5346221923828	3.1664059162139893	-12.645316123962402	-335.8979797363281	-0.0	-0.0	-0.0	-0.0	-0.0	-0.0	111924.40625	-23018.5703125	498.1850891113281
0.0005	-0.0	-0.0	-0.0	-4.964999198913574	13.381786346435549	-159.58888244628906	3.899349212646485	-12.89496612548828	-340.7565612792969	-0.0	-0.0	-0.0	-0.0	-0.0	-0.0	112995.0546875	-23275.2578125	692.0963745117188
0.001	-0.0	-0.0	-0.0	-5.100471496582031	13.203137397766112	-158.28585815429688	3.976468801498413	-12.68742561340332	-343.1549987792969	-0.0	-0.0	-0.0	-0.0	-0.0	-0.0	113570.8671875	-23574.095703125	711.5423583984375
0.0015	-0.0	-0.0	-0.0	-5.30601167678833	12.939434051513672	-157.91700744628906	4.289284706115723	-12.54167938232422	-346.5424194335937	-0.0	-0.0	-0.0	-0.0	-0.0	-0.0	114353.875	-24086.697265625	954.3251953125
0.002	-0.0	-0.0	-0.0	-5.1742095947265625	12.788026809692385	-154.33963012695312	4.983445167541504	-12.83267593383789	-348.84381103515625	-0.0	-0.0	-0.0	-0.0	-0.0	-0.0	115046.9765625	-24088.677734375	1043.7562255859375
0.0025	-0.0	-0.0	-0.0	-5.2212347984313965	12.64085578918457	-154.09140014648438	5.160943984985352	-12.801070213317873	-350.42449951171875	-0.0	-0.0	-0.0	-0.0	-0.0	-0.0	115904.6328125	-24294.3125	989.8442993164062
0.003	-0.0	-0.0	-0.0	-5.205695152282715	12.362910270690918	-151.47264099121094	5.145225524902344	-12.54167938232422	-351.5099182128906	-0.0	-0.0	-0.0	-0.0	-0.0	-0.0	116166.921875	-24831.546875	1084.21484375
0.0035	-0.0	-0.0	-0.0	-5.515231132507324	12.22667121887207	-150.64254760742188	4.8538336753845215	-12.380828857421877	-353.0917053222656	-0.0	-0.0	-0.0	-0.0	-0.0	-0.0	116364.3125	-24857.458984375	1051.319580078125
0.004	-0.0	-0.0	-0.0	-5.320874214172363	12.01673984527588	-151.03529357910156	5.347676753997803	-12.645851135253906	-352.86700439453125	-0.0	-0.0	-0.0	-0.0	-0.0	-0.0	116756.1484375	-24994.173828125	1092.8370361328125
0.0045000000000000005	-0.0	-0.0	-0.0	-4.954385757446289	11.959395408630373	-151.19874572753906	5.436158657073975	-12.32443618774414	-353.4043273925781	-0.0	-0.0	-0.0	-0.0	-0.0	-0.0	117087.3515625	-24999.470703125	1044.31982421875
0.005	-0.0	-0.0	-0.0	-5.018671989440918	11.968607902526855	-149.5218963623047	5.008350849151611	-12.211960792541504	-354.4520874023437	-0.0	-0.0	-0.0	-0.0	-0.0	-0.0	117105.6015625	-25202.220703125	995.47900390625
0.0055	-0.0	-0.0	-0.0	-5.490083694458008	12.308794021606444	-147.30482482910156	4.403295516967773	-12.365036010742188	-353.9762878417969	-0.0	-0.0	-0.0	-0.0	-0.0	-0.0	117281.6953125	-25468.673828125	960.0220947265624
0.006	-0.0	-0.0	-0.0	-5.497879505157471	11.39167308807373	-149.59033203125	4.596781730651856	-12.653889656066896	-353.88165283203125	-0.0	-0.0	-0.0	-0.0	-0.0	-0.0	117087.6015625	-25457.697265625	919.6404418945312
0.006500000000000001	-0.0	-0.0	-0.0	-5.522922992706299	11.8300199508667	-147.34022521972656	4.218176364898682	-12.26052951812744	-355.87872314453125	-0.0	-0.0	-0.0	-0.0	-0.0	-0.0	117295.1015625	-25213.96875	927.3909912109376
0.007	-0.0	-0.0	-0.0	-5.8878936767578125	11.894696235656738	-147.3404541015625	4.218377590179443	-12.197582244873049	-355.5648193359375	-0.0	-0.0	-0.0	-0.0	-0.0	-0.0	117591.8125	-25362.494140625	763.336669921875
0.0075	-0.0	-0.0	-0.0	-5.507246971130371	11.546832084655762	-147.01708984375	3.991985321044922	-12.201748847961426	-356.7684020996094	-0.0	-0.0	-0.0	-0.0	-0.0	-0.0	117808.203125	-25491.203125	679.7698974609375
0.008	-0.0	-0.0	-0.0	-5.296258449554443	11.206917762756348	-144.58059692382812	4.0313215255737305	-12.276714324951172	-357.092041015625	-0.0	-0.0	-0.0	-0.0	-0.0	-0.0	118401.8359375	-25540.6484375	724.8394775390625
0.0085	-0.0	-0.0	-0.0	-5.223642349243164	11.636340141296388	-144.38536071777344	3.670174360275269	-12.122617721557615	-360.2185974121094	-0.0	-0.0	-0.0	-0.0	-0.0	-0.0	118705.6875	-25962.896484375	646.6171264648438
0.009000000000000001	-0.0	-0.0	-0.0	-5.134664535522461	11.286480903625488	-144.20301818847656	3.880936861038208	-11.586661338806152	-359.4076538085937	-0.0	-0.0	-0.0	-0.0	-0.0	-0.0	119186.6875	-25940.66796875	697.029052734375
0.0095	-0.0	-0.0	-0.0	-4.989693641662598	11.609649658203123	-143.6784210205078	4.064035415649414	-11.56475830078125	-360.8260498046875	-0.0	-0.0	-0.0	-0.0	-0.0	-0.0	119252.453125	-26057.49609375	457.8638305664063
0.01	-0.0	-0.0	-0.0	-4.8173675537109375	11.207962989807127	-143.81027221679688	3.8531203269958496	-11.360207557678224	-360.4762268066406	-0.0	-0.0	-0.0	-0.0	-0.0	-0.0	119372.890625	-26080.28515625	420.7417602539063
0.0105	-0.0	-0.0	-0.0	-4.783851146697998	11.330889701843262	-143.54519653320312	4.03031063079834	-11.267019271850586	-360.25836181640625	-0.0	-0.0	-0.0	-0.0	-0.0	-0.0	119471.0390625	-26411.8203125	559.5883178710938
0.011	-0.0	-0.0	-0.0	-4.861260890960693	11.492695808410645	-142.7050018310547	3.8864219188690186	-10.804375648498535	-361.5220947265625	-0.0	-0.0	-0.0	-0.0	-0.0	-0.0	119738.90625	-26300.08203125	432.2223510742188
